<svg id="10015.io" viewBox="0 0 1200 630" xmlns="http://www.w3.org/2000/svg"><defs><pattern id="svg-pattern" x="0" y="0" width="62" height="62" patternUnits="userSpaceOnUse" patternTransform="translate(30, 30) rotate(0) skewX(0)"><svg width="32" height="32" viewBox="0 0 100 100"><g fill="#47d3ff" opacity="1"><path d="M96.7293 77.1028C98.8996 72.5258 99.9992 67.6167 99.9992 62.495C99.9992 44.2122 85.487 29.2369 67.315 28.3577C63.2198 13.6061 49.7675 3.31665 34.3757 3.31665C15.4217 3.31665 0.00150513 18.6493 0.00150513 37.4955C0.00150513 42.6173 1.10109 47.5264 3.27135 52.1034L0.0583397 68.1704C-0.350635 70.2157 1.45362 72.0235 3.49927 71.6188L19.7643 68.403C23.8388 70.3358 28.1731 71.4158 32.6878 71.6313C38.3807 92.129 61.2452 102.41 80.236 93.4024C98.0494 96.9242 96.6602 96.6738 97.0693 96.6738C98.9207 96.6738 100.304 94.9774 99.9421 93.1698L96.7293 77.1028ZM21.5026 62.7282C20.9164 62.4286 20.2461 62.335 19.6009 62.4627L6.66365 65.0207L9.21223 52.2768C9.34172 51.6294 9.24875 50.9567 8.94778 50.3687C6.89959 46.3617 5.86074 42.0308 5.86074 37.4955C5.86074 21.8801 18.6524 9.17589 34.3757 9.17589C46.6635 9.17589 57.4843 17.1659 61.2659 28.5928C43.355 30.8828 29.8653 47.044 31.5959 65.68C28.0657 65.3408 24.6837 64.3545 21.5026 62.7282V62.7282ZM90.7886 77.2763L93.3372 90.0201L80.4 87.4622C79.7543 87.3346 79.0844 87.428 78.4983 87.7276C74.4914 89.7758 70.1604 90.8146 65.6252 90.8146C50.0097 90.8146 37.3055 78.1104 37.3055 62.495C37.3055 46.8795 50.0097 34.1753 65.6252 34.1753C81.3484 34.1753 94.1401 46.8795 94.1401 62.495C94.1401 67.0302 93.1015 71.3612 91.0531 75.3681C90.7521 75.9562 90.6591 76.6286 90.7886 77.2763V77.2763Z"></path></g></svg></pattern></defs><rect x="0" y="0" width="100%" height="100%" fill="#474bff"></rect><rect x="0" y="0" width="100%" height="100%" fill="url(#svg-pattern)"></rect></svg>